<svg width="30" height="30" viewBox="0 0 30 30" fill="none" xmlns="http://www.w3.org/2000/svg">
<rect width="30" height="30" rx="4" fill="#EBFFED"/>
<path d="M18.9397 13.0889H12.8071C12.5688 13.0889 12.3755 12.9119 12.3755 12.6934C12.3755 12.475 12.5687 12.298 12.8071 12.298H18.9394C19.1778 12.298 19.3711 12.475 19.3711 12.6934C19.3711 12.9119 19.1778 13.0889 18.9396 13.0889H18.9397Z" fill="#58D365" fill-opacity="0.7"/>
<path d="M18.9397 15.9616H12.8071C12.5688 15.9616 12.3755 15.7846 12.3755 15.5661C12.3755 15.3477 12.5687 15.1707 12.8071 15.1707H18.9394C19.1778 15.1707 19.3711 15.3477 19.3711 15.5661C19.3711 15.7846 19.1778 15.9616 18.9396 15.9616H18.9397Z" fill="#58D365" fill-opacity="0.7"/>
<path d="M12.8705 18.6496C12.6321 18.6496 12.4388 18.4726 12.4388 18.2541C12.4388 18.0357 12.632 17.8586 12.8705 17.8586C15.1801 17.8586 17.1313 16.7554 17.1313 15.4496C17.1313 14.1437 15.18 13.0404 12.8705 13.0404C12.6321 13.0404 12.4388 12.8634 12.4388 12.645C12.4388 12.4266 12.632 12.2495 12.8705 12.2495C15.7439 12.2495 17.9947 13.6552 17.9947 15.4495C17.9947 17.2438 15.7439 18.6495 12.8705 18.6495V18.6496Z" fill="#58D365" fill-opacity="0.7"/>
<path d="M17.4823 23.3011C17.3673 23.3011 17.2527 23.2593 17.1676 23.1765L12.6097 18.7337C12.4464 18.5745 12.4549 18.3242 12.6286 18.1747C12.8023 18.0253 13.0753 18.033 13.2387 18.192L17.7966 22.6348C17.9599 22.7941 17.9514 23.0443 17.7777 23.1938C17.6944 23.2655 17.5881 23.3011 17.4821 23.3011L17.4823 23.3011Z" fill="#58D365" fill-opacity="0.7"/>
<path d="M4.03194 15.2112H6.11574V26.3248C6.11574 26.7138 6.42137 27.0194 6.81033 27.0194H24.8699C25.2589 27.0194 25.5645 26.7138 25.5645 26.3248V15.2112H27.6483C28.2595 15.2112 28.5652 14.461 28.1483 14.0166L16.3401 2.20844C16.0622 1.93052 15.6178 1.93052 15.3676 2.20844L3.53213 14.0166C3.11525 14.461 3.42088 15.2112 4.03214 15.2112H4.03194ZM15.8401 3.68089L25.9813 13.822H24.87C24.481 13.822 24.1754 14.1277 24.1754 14.5166V25.6302H7.50503V14.5166C7.50503 14.1277 7.1994 13.822 6.81043 13.822H5.69917L15.8401 3.68089Z" fill="#58D365" fill-opacity="0.7"/>
</svg>
