<svg width="24" height="24" viewBox="0 0 24 24" fill="none" xmlns="http://www.w3.org/2000/svg">
<path d="M6.3997 2.80566C6.58724 2.75281 6.80094 2.85919 6.85477 3.07227L7.44364 5.27148L12.0774 4.05664L12.1556 4.04395C12.3366 4.03202 12.5074 4.13525 12.555 4.32422L13.5374 7.95996L17.1292 7L17.2073 6.9873C17.3881 6.97535 17.5589 7.07805 17.6067 7.2666L19.4475 14.1016L21.0921 13.6738L21.1702 13.6611C21.3512 13.6492 21.522 13.7525 21.5696 13.9414L22.01 15.5635L22.0354 15.6816C22.132 16.2718 21.7798 16.8748 21.1858 16.9902L21.1868 16.9912L15.2454 18.5566C15.3193 19.7233 14.5686 20.8112 13.3997 21.1152L13.4007 21.1162C12.2319 21.4434 11.0179 20.8695 10.51 19.8281L9.53056 20.0967H9.52958C9.32229 20.1484 9.10667 20.0456 9.05204 19.8301L5.05595 5.11523L3.15653 5.58984C2.66739 5.71205 2.13119 5.41928 1.98466 4.90625C1.83743 4.39065 2.1568 3.87833 2.66727 3.73242L2.66923 3.73145L6.3997 2.80469V2.80566ZM14.428 18.4131C14.2482 17.5141 13.2798 16.8605 12.2884 17.1309H12.2874C11.3421 17.3787 10.8023 18.346 11.095 19.292C11.3648 20.1688 12.2865 20.6653 13.1878 20.418L13.346 20.3643C14.1164 20.0644 14.6176 19.2778 14.428 18.4141V18.4131ZM2.85575 4.45508C2.73883 4.49238 2.70011 4.60498 2.72684 4.70703C2.74023 4.75766 2.76916 4.80104 2.80888 4.82715C2.84751 4.85255 2.90004 4.86405 2.96806 4.84473H2.97001L5.24149 4.28809L5.25321 4.28516V4.28711H5.32255C5.46636 4.28711 5.60339 4.38907 5.6702 4.51855L5.69462 4.57617L5.69559 4.57812V4.5791L9.69169 19.2705L10.2718 19.1289C10.1773 18.4611 10.356 17.7402 10.8079 17.1953L10.3411 17.3164H10.3401C10.1327 17.368 9.91687 17.2648 9.86259 17.0488L6.21415 3.60938L2.85575 4.45508ZM13.6302 16.4619C14.2777 16.701 14.8127 17.2181 15.0618 17.8564L20.9759 16.293C21.1744 16.2387 21.2944 16.0582 21.2796 15.8604L21.2649 15.7744L20.93 14.5244C18.6528 15.1331 15.8601 15.8705 13.6302 16.4619ZM8.74442 10.0264L10.5022 16.4873L18.7249 14.3125L16.9671 7.84961L8.74442 10.0264ZM7.65458 6.0166L8.53251 9.28027L12.7923 8.14844L11.9153 4.88379L7.65458 6.0166Z" fill="#5D6679" stroke="#5D6679" stroke-width="0.1"/>
</svg>
