<svg width="30" height="30" viewBox="0 0 30 30" fill="none" xmlns="http://www.w3.org/2000/svg">
<rect width="30" height="30" rx="4" fill="#ECEAFF"/>
<path d="M14.8119 2C12.3255 2 9.94094 2.98774 8.18307 4.74572C6.42487 6.50391 5.43713 8.88846 5.43713 11.3751C5.43713 16.375 13.987 25.7498 14.3497 26.1751C14.469 26.3038 14.6368 26.3762 14.8122 26.3752C14.9875 26.3762 15.1554 26.3038 15.2746 26.1751L16.0621 25.2813V25.7501C16.0621 26.0816 16.1939 26.3996 16.4283 26.634C16.6627 26.8684 16.9805 27 17.3122 27H24.8121C25.1436 27 25.4615 26.8684 25.6958 26.634C25.9304 26.3996 26.062 26.0816 26.062 25.7501V18.2502C26.062 17.9187 25.9304 17.6006 25.6958 17.3663C25.4615 17.1319 25.1436 17.0003 24.8121 17.0003H22.1683C23.5057 14.6877 24.1871 12.8004 24.1871 11.3753C24.1871 9.72968 23.7539 8.11297 22.9311 6.68787C22.1083 5.26262 20.9247 4.07924 19.4996 3.2564C18.0745 2.43355 16.4578 2.00043 14.8122 2.00043L14.8119 2ZM24.812 25.7495H17.3121V18.2496H19.187V20.7497C19.1877 20.9663 19.3005 21.1672 19.485 21.2804C19.6696 21.3938 19.8998 21.4034 20.0932 21.3059L21.0618 20.8246L22.0305 21.3059H22.0307C22.1178 21.3505 22.214 21.3741 22.312 21.3745C22.4289 21.3749 22.5438 21.3425 22.6432 21.2808C22.8263 21.1663 22.9374 20.9656 22.937 20.7497V18.2496H24.812L24.812 25.7495ZM21.6871 18.2496V19.7371L21.3745 19.5684C21.1976 19.4793 20.9888 19.4793 20.812 19.5684L20.4681 19.7371V18.2496H21.6871ZM19.8121 16.9997H17.3121C16.9804 16.9997 16.6625 17.1313 16.4282 17.3657C16.1938 17.6001 16.0619 17.9181 16.0619 18.2496V23.3495C15.5557 23.9746 15.1182 24.4682 14.812 24.8121C13.0308 22.7808 6.68695 15.2936 6.68695 11.3749C6.68695 8.472 8.23568 5.79014 10.7495 4.33837C13.2634 2.8866 16.3605 2.88692 18.8741 4.33837C21.3876 5.78981 22.9367 8.47189 22.9367 11.3749C22.9367 12.6811 22.1618 14.6249 20.7116 16.9998L19.8121 16.9997Z" fill="#817AF3" fill-opacity="0.6"/>
<path d="M14.8119 6.99988C13.6516 6.99988 12.5389 7.46088 11.7184 8.28118C10.8979 9.10168 10.4369 10.2146 10.4369 11.3749C10.4369 12.535 10.8979 13.6479 11.7184 14.4684C12.5389 15.2889 13.6516 15.7497 14.8119 15.7497C15.9723 15.7497 17.0849 15.2889 17.9054 14.4684C18.7259 13.6479 19.1869 12.535 19.1869 11.3749C19.1869 10.2146 18.7259 9.10168 17.9054 8.28118C17.0849 7.46091 15.9723 6.99988 14.8119 6.99988ZM14.8119 14.4998C13.983 14.4998 13.1882 14.1706 12.6023 13.5845C12.0162 12.9985 11.687 12.2036 11.687 11.3749C11.687 10.546 12.0162 9.75122 12.6023 9.1651C13.1883 8.57915 13.983 8.24979 14.8119 8.24979C15.6408 8.24979 16.4356 8.57917 17.0215 9.1651C17.6076 9.75122 17.9368 10.546 17.9368 11.3749C17.9368 12.2036 17.6076 12.9986 17.0215 13.5845C16.4355 14.1706 15.6408 14.4998 14.8119 14.4998Z" fill="#817AF3" fill-opacity="0.6"/>
</svg>
