<svg width="30" height="30" viewBox="0 0 30 30" fill="none" xmlns="http://www.w3.org/2000/svg">
<rect width="30" height="30" rx="4" fill="#FFEEDB"/>
<path d="M23.4381 2.90039C23.9369 2.90039 24.4091 3.11848 24.7506 3.48828L24.8893 3.65527L24.8903 3.65625L27.4508 7.23047L27.5641 7.38867H27.5074C27.5108 7.41816 27.5105 7.44945 27.4996 7.48242V24.9795C27.4996 25.8673 26.7711 26.6287 25.8512 26.6289H3.96057C3.04153 26.6289 2.31213 25.8983 2.31213 24.9795V7.46777C2.31213 7.38002 2.35458 7.29791 2.38147 7.24414L2.38538 7.2373L2.39026 7.23047L4.94885 3.65918C5.26661 3.18266 5.83592 2.90039 6.40295 2.90039H23.4381ZM3.10706 24.9795C3.10706 25.4328 3.48181 25.833 3.96057 25.833H25.8805C26.3338 25.833 26.734 25.4583 26.734 24.9795V7.86523H18.5944V12.8584C18.5943 13.103 18.4565 13.3416 18.2526 13.4775L18.2448 13.4824L18.236 13.4863C18.0126 13.5819 17.7685 13.6219 17.5221 13.4814V13.4805L14.9205 12.0781L12.317 13.4824C12.2107 13.5505 12.0763 13.5839 11.9723 13.584C11.8385 13.584 11.698 13.5506 11.5885 13.4775C11.3867 13.3431 11.2468 13.1352 11.2467 12.8584V7.86523H3.10706V24.9795ZM12.0426 7.54102V12.7803L14.8727 11.2217L14.9205 11.1953L14.9684 11.2217L17.7985 12.751V7.50977L16.7213 3.69531H13.15L12.0426 7.54102ZM18.5104 7.06934H26.3707L24.2506 4.10059V4.09961C24.0592 3.85605 23.761 3.69547 23.4391 3.69531H17.5553L18.5104 7.06934ZM6.40295 3.69531C6.07406 3.69531 5.7791 3.83171 5.59143 4.09961L5.59045 4.10059L3.47034 7.06934H11.361L12.316 3.69531H6.40295Z" fill="#DBA362" stroke="#DBA362" stroke-width="0.2"/>
<path d="M17.4032 7.06995V7.86487H12.4384V7.06995H17.4032Z" fill="#DBA362" stroke="#DBA362" stroke-width="0.2"/>
</svg>
