<svg width="26" height="24" viewBox="0 0 26 24" fill="none" xmlns="http://www.w3.org/2000/svg">
<mask id="path-1-outside-1_1_211" maskUnits="userSpaceOnUse" x="-0.900024" y="-0.900024" width="27" height="25" fill="black">
<rect fill="white" x="-0.900024" y="-0.900024" width="27" height="25"/>
<path d="M15.8813 12.3144H9.3181C9.12509 12.3144 8.96827 12.4712 8.96827 12.6643V23.544C8.96827 23.737 9.12508 23.8938 9.3181 23.8938H15.8808C16.0738 23.8938 16.2306 23.737 16.2306 23.544L16.2308 12.6643C16.2308 12.4712 16.074 12.3144 15.881 12.3144H15.8813ZM9.66852 17.7306V16.6156H15.5319V17.7312H9.66852V17.7306ZM15.5314 18.4304V19.546H9.66852V18.4304H15.5314ZM9.66852 15.9159V14.8003H15.5319V15.9159H9.66852ZM9.66852 20.2459H15.5319V21.3615H9.66852V20.2459ZM15.5314 13.0141V14.1006L9.66852 14.1004V13.0139L15.5314 13.0141ZM9.66852 23.1935V22.061H15.5319L15.5317 23.1935H9.66852ZM24.7501 6.87421H18.1874C17.9944 6.87421 17.8376 7.03102 17.8376 7.22405L17.8374 23.5433C17.8374 23.7363 17.9942 23.8932 18.1872 23.8932H24.7499C24.943 23.8932 25.0998 23.7363 25.0998 23.5433L25.1 7.22405C25.1 7.03103 24.9438 6.87421 24.7501 6.87421ZM18.5373 15.9148V14.7992H24.4008V15.9148H18.5373ZM24.4008 16.6145V17.7302H18.5373V16.6145H24.4008ZM18.5373 14.1V12.9844H24.4008V14.1H18.5373ZM18.5373 12.2847V11.1691H24.4008V12.2847H18.5373ZM18.5373 18.4299H24.4008V19.5455H18.5373V18.4299ZM24.4008 10.4691H18.5373V9.3535H24.4008V10.4691ZM18.5373 20.2455H24.4008V21.3611H18.5373V20.2455ZM24.4008 7.57359V8.65359H18.5373V7.57359H24.4008ZM18.5373 23.1931V22.0606H24.4008V23.1931H18.5373ZM7.01252 17.7535H0.449813C0.256795 17.7535 0.0999756 17.9103 0.0999756 18.1033V23.5434C0.0999756 23.7365 0.25679 23.8933 0.449813 23.8933H7.01252C7.20553 23.8933 7.36235 23.7365 7.36235 23.5434V18.1038C7.36256 17.9106 7.20554 17.7538 7.01252 17.7538V17.7535ZM0.799713 20.2664H6.66314V21.3796H0.799713V20.2664ZM6.66314 18.4534V19.5666H0.799713V18.4534H6.66314ZM0.799713 23.1932V22.0801H6.66314V23.1932H0.799713ZM13.7634 8.7682L21.7319 0.79965H18.0719C17.8789 0.79965 17.7221 0.642836 17.7221 0.449813C17.7221 0.25679 17.8789 0.0999756 18.0719 0.0999756H22.5769C22.7699 0.0999756 22.9267 0.25679 22.9267 0.449813V4.95477C22.9267 5.14779 22.7699 5.30461 22.5769 5.30461C22.3838 5.30461 22.227 5.14779 22.227 4.95477V1.29473L14.0111 9.5106C13.8747 9.64708 13.6532 9.64708 13.5161 9.5106L10.9157 6.91025L2.87169 14.9548C2.80356 15.023 2.71365 15.0575 2.62437 15.0575C2.53508 15.0575 2.44538 15.0232 2.37704 14.9548C2.24057 14.8183 2.24057 14.5968 2.37704 14.4604L10.6689 6.16848C10.8054 6.032 11.0269 6.032 11.164 6.16848L13.7634 8.7682Z"/>
</mask>
<path d="M15.8813 12.3144H9.3181C9.12509 12.3144 8.96827 12.4712 8.96827 12.6643V23.544C8.96827 23.737 9.12508 23.8938 9.3181 23.8938H15.8808C16.0738 23.8938 16.2306 23.737 16.2306 23.544L16.2308 12.6643C16.2308 12.4712 16.074 12.3144 15.881 12.3144H15.8813ZM9.66852 17.7306V16.6156H15.5319V17.7312H9.66852V17.7306ZM15.5314 18.4304V19.546H9.66852V18.4304H15.5314ZM9.66852 15.9159V14.8003H15.5319V15.9159H9.66852ZM9.66852 20.2459H15.5319V21.3615H9.66852V20.2459ZM15.5314 13.0141V14.1006L9.66852 14.1004V13.0139L15.5314 13.0141ZM9.66852 23.1935V22.061H15.5319L15.5317 23.1935H9.66852ZM24.7501 6.87421H18.1874C17.9944 6.87421 17.8376 7.03102 17.8376 7.22405L17.8374 23.5433C17.8374 23.7363 17.9942 23.8932 18.1872 23.8932H24.7499C24.943 23.8932 25.0998 23.7363 25.0998 23.5433L25.1 7.22405C25.1 7.03103 24.9438 6.87421 24.7501 6.87421ZM18.5373 15.9148V14.7992H24.4008V15.9148H18.5373ZM24.4008 16.6145V17.7302H18.5373V16.6145H24.4008ZM18.5373 14.1V12.9844H24.4008V14.1H18.5373ZM18.5373 12.2847V11.1691H24.4008V12.2847H18.5373ZM18.5373 18.4299H24.4008V19.5455H18.5373V18.4299ZM24.4008 10.4691H18.5373V9.3535H24.4008V10.4691ZM18.5373 20.2455H24.4008V21.3611H18.5373V20.2455ZM24.4008 7.57359V8.65359H18.5373V7.57359H24.4008ZM18.5373 23.1931V22.0606H24.4008V23.1931H18.5373ZM7.01252 17.7535H0.449813C0.256795 17.7535 0.0999756 17.9103 0.0999756 18.1033V23.5434C0.0999756 23.7365 0.25679 23.8933 0.449813 23.8933H7.01252C7.20553 23.8933 7.36235 23.7365 7.36235 23.5434V18.1038C7.36256 17.9106 7.20554 17.7538 7.01252 17.7538V17.7535ZM0.799713 20.2664H6.66314V21.3796H0.799713V20.2664ZM6.66314 18.4534V19.5666H0.799713V18.4534H6.66314ZM0.799713 23.1932V22.0801H6.66314V23.1932H0.799713ZM13.7634 8.7682L21.7319 0.79965H18.0719C17.8789 0.79965 17.7221 0.642836 17.7221 0.449813C17.7221 0.25679 17.8789 0.0999756 18.0719 0.0999756H22.5769C22.7699 0.0999756 22.9267 0.25679 22.9267 0.449813V4.95477C22.9267 5.14779 22.7699 5.30461 22.5769 5.30461C22.3838 5.30461 22.227 5.14779 22.227 4.95477V1.29473L14.0111 9.5106C13.8747 9.64708 13.6532 9.64708 13.5161 9.5106L10.9157 6.91025L2.87169 14.9548C2.80356 15.023 2.71365 15.0575 2.62437 15.0575C2.53508 15.0575 2.44538 15.0232 2.37704 14.9548C2.24057 14.8183 2.24057 14.5968 2.37704 14.4604L10.6689 6.16848C10.8054 6.032 11.0269 6.032 11.164 6.16848L13.7634 8.7682Z" fill="#817AF3"/>
<path d="M15.8813 12.3144H9.3181C9.12509 12.3144 8.96827 12.4712 8.96827 12.6643V23.544C8.96827 23.737 9.12508 23.8938 9.3181 23.8938H15.8808C16.0738 23.8938 16.2306 23.737 16.2306 23.544L16.2308 12.6643C16.2308 12.4712 16.074 12.3144 15.881 12.3144H15.8813ZM9.66852 17.7306V16.6156H15.5319V17.7312H9.66852V17.7306ZM15.5314 18.4304V19.546H9.66852V18.4304H15.5314ZM9.66852 15.9159V14.8003H15.5319V15.9159H9.66852ZM9.66852 20.2459H15.5319V21.3615H9.66852V20.2459ZM15.5314 13.0141V14.1006L9.66852 14.1004V13.0139L15.5314 13.0141ZM9.66852 23.1935V22.061H15.5319L15.5317 23.1935H9.66852ZM24.7501 6.87421H18.1874C17.9944 6.87421 17.8376 7.03102 17.8376 7.22405L17.8374 23.5433C17.8374 23.7363 17.9942 23.8932 18.1872 23.8932H24.7499C24.943 23.8932 25.0998 23.7363 25.0998 23.5433L25.1 7.22405C25.1 7.03103 24.9438 6.87421 24.7501 6.87421ZM18.5373 15.9148V14.7992H24.4008V15.9148H18.5373ZM24.4008 16.6145V17.7302H18.5373V16.6145H24.4008ZM18.5373 14.1V12.9844H24.4008V14.1H18.5373ZM18.5373 12.2847V11.1691H24.4008V12.2847H18.5373ZM18.5373 18.4299H24.4008V19.5455H18.5373V18.4299ZM24.4008 10.4691H18.5373V9.3535H24.4008V10.4691ZM18.5373 20.2455H24.4008V21.3611H18.5373V20.2455ZM24.4008 7.57359V8.65359H18.5373V7.57359H24.4008ZM18.5373 23.1931V22.0606H24.4008V23.1931H18.5373ZM7.01252 17.7535H0.449813C0.256795 17.7535 0.0999756 17.9103 0.0999756 18.1033V23.5434C0.0999756 23.7365 0.25679 23.8933 0.449813 23.8933H7.01252C7.20553 23.8933 7.36235 23.7365 7.36235 23.5434V18.1038C7.36256 17.9106 7.20554 17.7538 7.01252 17.7538V17.7535ZM0.799713 20.2664H6.66314V21.3796H0.799713V20.2664ZM6.66314 18.4534V19.5666H0.799713V18.4534H6.66314ZM0.799713 23.1932V22.0801H6.66314V23.1932H0.799713ZM13.7634 8.7682L21.7319 0.79965H18.0719C17.8789 0.79965 17.7221 0.642836 17.7221 0.449813C17.7221 0.25679 17.8789 0.0999756 18.0719 0.0999756H22.5769C22.7699 0.0999756 22.9267 0.25679 22.9267 0.449813V4.95477C22.9267 5.14779 22.7699 5.30461 22.5769 5.30461C22.3838 5.30461 22.227 5.14779 22.227 4.95477V1.29473L14.0111 9.5106C13.8747 9.64708 13.6532 9.64708 13.5161 9.5106L10.9157 6.91025L2.87169 14.9548C2.80356 15.023 2.71365 15.0575 2.62437 15.0575C2.53508 15.0575 2.44538 15.0232 2.37704 14.9548C2.24057 14.8183 2.24057 14.5968 2.37704 14.4604L10.6689 6.16848C10.8054 6.032 11.0269 6.032 11.164 6.16848L13.7634 8.7682Z" stroke="#817AF3" stroke-width="0.2" mask="url(#path-1-outside-1_1_211)"/>
</svg>
