<svg width="24" height="24" viewBox="0 0 24 24" fill="none" xmlns="http://www.w3.org/2000/svg">
<path d="M21.7275 20.4093L16.9402 15.6226C16.697 15.3795 16.3535 15.3025 16.0431 15.3844L15.016 14.3573C16.1747 13.0448 16.8846 11.3267 16.8846 9.44218C16.8846 5.33871 13.5462 2 9.44264 2C5.3385 2 1.99979 5.33871 1.99979 9.44285C1.99979 13.5467 5.3385 16.885 9.44264 16.885C11.3269 16.885 13.0449 16.1755 14.3577 15.0164L15.3848 16.0436C15.3029 16.354 15.3796 16.6972 15.6231 16.9406L20.4098 21.727C20.5921 21.9093 20.83 22 21.0686 22C21.3072 22 21.5454 21.909 21.7275 21.727C22.0912 21.3633 22.0912 20.7733 21.7275 20.4093L21.7275 20.4093ZM2.93171 9.44254C2.93171 5.85288 5.85214 2.93187 9.44239 2.93187C13.0326 2.93187 15.9527 5.85288 15.9527 9.44287C15.9527 13.0325 13.032 15.9532 9.44239 15.9532C5.8528 15.9532 2.93171 13.0325 2.93171 9.44254Z" fill="#858D9D"/>
</svg>
