<svg width="20" height="20" viewBox="0 0 20 20" fill="none" xmlns="http://www.w3.org/2000/svg">
<g clip-path="url(#clip0_115_54)">
<path d="M10 12.4999C11.3807 12.4999 12.5 11.3806 12.5 9.99992C12.5 8.61921 11.3807 7.49992 10 7.49992C8.61929 7.49992 7.5 8.61921 7.5 9.99992C7.5 11.3806 8.61929 12.4999 10 12.4999Z" stroke="#5D6679" stroke-width="1.2" stroke-linecap="round" stroke-linejoin="round"/>
<path d="M16.1667 12.4999C16.0557 12.7513 16.0226 13.0301 16.0717 13.3004C16.1207 13.5707 16.2495 13.8202 16.4417 14.0166L16.4917 14.0666C16.6466 14.2214 16.7696 14.4052 16.8534 14.6075C16.9373 14.8098 16.9805 15.0267 16.9805 15.2458C16.9805 15.4648 16.9373 15.6817 16.8534 15.884C16.7696 16.0863 16.6466 16.2701 16.4917 16.4249C16.3369 16.5799 16.1531 16.7028 15.9507 16.7867C15.7484 16.8706 15.5315 16.9137 15.3125 16.9137C15.0935 16.9137 14.8766 16.8706 14.6743 16.7867C14.4719 16.7028 14.2881 16.5799 14.1333 16.4249L14.0833 16.3749C13.8869 16.1828 13.6375 16.0539 13.3672 16.0049C13.0968 15.9559 12.818 15.989 12.5667 16.0999C12.3202 16.2056 12.11 16.381 11.9619 16.6045C11.8139 16.8281 11.7344 17.0901 11.7333 17.3583V17.4999C11.7333 17.9419 11.5577 18.3659 11.2452 18.6784C10.9326 18.991 10.5087 19.1666 10.0667 19.1666C9.62464 19.1666 9.20071 18.991 8.88815 18.6784C8.57559 18.3659 8.4 17.9419 8.4 17.4999V17.4249C8.39355 17.1491 8.30426 16.8816 8.14376 16.6572C7.98325 16.4328 7.75894 16.2618 7.5 16.1666C7.24865 16.0557 6.96984 16.0226 6.69951 16.0716C6.42918 16.1206 6.17973 16.2495 5.98333 16.4416L5.93333 16.4916C5.77854 16.6465 5.59473 16.7695 5.3924 16.8533C5.19007 16.9372 4.97319 16.9804 4.75416 16.9804C4.53514 16.9804 4.31826 16.9372 4.11593 16.8533C3.9136 16.7695 3.72979 16.6465 3.575 16.4916C3.42004 16.3368 3.29711 16.153 3.21323 15.9507C3.12936 15.7483 3.08619 15.5314 3.08619 15.3124C3.08619 15.0934 3.12936 14.8765 3.21323 14.6742C3.29711 14.4719 3.42004 14.288 3.575 14.1332L3.625 14.0833C3.81711 13.8869 3.94599 13.6374 3.995 13.3671C4.04402 13.0967 4.01093 12.8179 3.9 12.5666C3.79436 12.3201 3.61896 12.1099 3.39539 11.9618C3.17181 11.8138 2.90982 11.7343 2.64167 11.7333H2.5C2.05797 11.7333 1.63405 11.5577 1.32149 11.2451C1.00893 10.9325 0.833332 10.5086 0.833332 10.0666C0.833332 9.62456 1.00893 9.20063 1.32149 8.88807C1.63405 8.57551 2.05797 8.39992 2.5 8.39992H2.575C2.85083 8.39347 3.11834 8.30418 3.34275 8.14368C3.56716 7.98317 3.73809 7.75886 3.83333 7.49992C3.94426 7.24857 3.97735 6.96976 3.92834 6.69943C3.87932 6.4291 3.75045 6.17965 3.55833 5.98325L3.50833 5.93325C3.35337 5.77846 3.23044 5.59465 3.14657 5.39232C3.06269 5.18999 3.01952 4.97311 3.01952 4.75408C3.01952 4.53506 3.06269 4.31818 3.14657 4.11585C3.23044 3.91352 3.35337 3.72971 3.50833 3.57492C3.66312 3.41996 3.84693 3.29703 4.04926 3.21315C4.25159 3.12928 4.46847 3.08611 4.6875 3.08611C4.90652 3.08611 5.1234 3.12928 5.32573 3.21315C5.52806 3.29703 5.71188 3.41996 5.86666 3.57492L5.91666 3.62492C6.11306 3.81703 6.36251 3.94591 6.63284 3.99492C6.90317 4.04394 7.18198 4.01085 7.43333 3.89992H7.5C7.74647 3.79428 7.95668 3.61888 8.10474 3.39531C8.2528 3.17173 8.33226 2.90974 8.33333 2.64159V2.49992C8.33333 2.05789 8.50893 1.63397 8.82149 1.32141C9.13405 1.00885 9.55797 0.833252 10 0.833252C10.442 0.833252 10.8659 1.00885 11.1785 1.32141C11.4911 1.63397 11.6667 2.05789 11.6667 2.49992V2.57492C11.6677 2.84307 11.7472 3.10506 11.8953 3.32864C12.0433 3.55221 12.2535 3.72762 12.5 3.83325C12.7513 3.94418 13.0302 3.97727 13.3005 3.92826C13.5708 3.87924 13.8203 3.75037 14.0167 3.55825L14.0667 3.50825C14.2215 3.35329 14.4053 3.23036 14.6076 3.14649C14.8099 3.06261 15.0268 3.01944 15.2458 3.01944C15.4649 3.01944 15.6817 3.06261 15.8841 3.14649C16.0864 3.23036 16.2702 3.35329 16.425 3.50825C16.58 3.66304 16.7029 3.84685 16.7868 4.04918C16.8706 4.25151 16.9138 4.46839 16.9138 4.68742C16.9138 4.90644 16.8706 5.12332 16.7868 5.32565C16.7029 5.52798 16.58 5.7118 16.425 5.86658L16.375 5.91658C16.1829 6.11298 16.054 6.36243 16.005 6.63276C15.956 6.90309 15.9891 7.1819 16.1 7.43325V7.49992C16.2056 7.74639 16.381 7.9566 16.6046 8.10466C16.8282 8.25272 17.0902 8.33218 17.3583 8.33325H17.5C17.942 8.33325 18.3659 8.50885 18.6785 8.82141C18.9911 9.13397 19.1667 9.55789 19.1667 9.99992C19.1667 10.4419 18.9911 10.8659 18.6785 11.1784C18.3659 11.491 17.942 11.6666 17.5 11.6666H17.425C17.1568 11.6677 16.8949 11.7471 16.6713 11.8952C16.4477 12.0432 16.2723 12.2534 16.1667 12.4999Z" stroke="#5D6679" stroke-width="1.2" stroke-linecap="round" stroke-linejoin="round"/>
</g>
<defs>
<clipPath id="clip0_115_54">
<rect width="20" height="20" fill="white"/>
</clipPath>
</defs>
</svg>
